<?xml version="1.0" encoding="UTF-8" standalone="no"?>
<!-- Created with Inkscape (http://www.inkscape.org/) -->

<svg
   width="210mm"
   height="140mm"
   viewBox="0 0 210 140"
   version="1.1"
   id="svg5"
   inkscape:version="1.1.1 (50ffc5b540, 2022-01-11)"
   sodipodi:docname="json_files.svg"
   inkscape:export-filename="/home/tbedrine/Documents/exo3d/docs/svg_doc/json_files.png"
   inkscape:export-xdpi="96"
   inkscape:export-ydpi="96"
   xmlns:inkscape="http://www.inkscape.org/namespaces/inkscape"
   xmlns:sodipodi="http://sodipodi.sourceforge.net/DTD/sodipodi-0.dtd"
   xmlns="http://www.w3.org/2000/svg"
   xmlns:svg="http://www.w3.org/2000/svg">
  <sodipodi:namedview
     id="namedview7"
     pagecolor="#ffffff"
     bordercolor="#666666"
     borderopacity="1.0"
     inkscape:pageshadow="2"
     inkscape:pageopacity="0.0"
     inkscape:pagecheckerboard="0"
     inkscape:document-units="mm"
     showgrid="false"
     inkscape:snap-bbox="true"
     inkscape:bbox-paths="true"
     inkscape:bbox-nodes="true"
     inkscape:snap-bbox-edge-midpoints="true"
     inkscape:snap-bbox-midpoints="true"
     inkscape:snap-intersection-paths="true"
     inkscape:object-paths="true"
     inkscape:snap-midpoints="true"
     inkscape:snap-global="false"
     inkscape:zoom="0.61973283"
     inkscape:cx="257.36897"
     inkscape:cy="204.12022"
     inkscape:window-width="1848"
     inkscape:window-height="1016"
     inkscape:window-x="72"
     inkscape:window-y="27"
     inkscape:window-maximized="1"
     inkscape:current-layer="layer1"
     lock-margins="true"
     fit-margin-top="15"
     fit-margin-left="15"
     fit-margin-right="15"
     fit-margin-bottom="15" />
  <defs
     id="defs2">
    <rect
       x="529.85699"
       y="36.071579"
       width="114.68537"
       height="27.057028"
       id="rect22215" />
    <inkscape:path-effect
       effect="bspline"
       id="path-effect14874"
       is_visible="true"
       lpeversion="1"
       weight="33.333333"
       steps="2"
       helper_size="0"
       apply_no_weight="true"
       apply_with_weight="true"
       only_selected="false" />
    <inkscape:path-effect
       effect="bspline"
       id="path-effect14760"
       is_visible="true"
       lpeversion="1"
       weight="33.333333"
       steps="2"
       helper_size="0"
       apply_no_weight="true"
       apply_with_weight="true"
       only_selected="false" />
    <inkscape:path-effect
       effect="bspline"
       id="path-effect14494"
       is_visible="true"
       lpeversion="1"
       weight="33.333333"
       steps="2"
       helper_size="0"
       apply_no_weight="true"
       apply_with_weight="true"
       only_selected="false" />
    <inkscape:path-effect
       effect="bspline"
       id="path-effect14460"
       is_visible="true"
       lpeversion="1"
       weight="33.333333"
       steps="2"
       helper_size="0"
       apply_no_weight="true"
       apply_with_weight="true"
       only_selected="false" />
    <inkscape:path-effect
       effect="bspline"
       id="path-effect14423"
       is_visible="true"
       lpeversion="1"
       weight="33.333333"
       steps="2"
       helper_size="0"
       apply_no_weight="true"
       apply_with_weight="true"
       only_selected="false" />
    <inkscape:path-effect
       effect="bspline"
       id="path-effect14306"
       is_visible="true"
       lpeversion="1"
       weight="33.333333"
       steps="2"
       helper_size="0"
       apply_no_weight="true"
       apply_with_weight="true"
       only_selected="false" />
    <rect
       x="19.339003"
       y="23.512686"
       width="271.35995"
       height="413.25726"
       id="rect4985" />
    <symbol
       id="n"
       overflow="visible">
      <path
         d="m 29.312,-1.75 c -1.5117,0.78125 -3.0898,1.3711 -4.7344,1.7656 -1.6367,0.40625 -3.3398,0.60938 -5.1094,0.60938 -5.3125,0 -9.5273,-1.4844 -12.641,-4.4531 -3.1055,-2.9688 -4.6562,-7 -4.6562,-12.094 0,-5.094 1.5508,-9.125 4.6562,-12.094 3.1133,-2.9688 7.3281,-4.4531 12.641,-4.4531 1.7695,0 3.4727,0.19922 5.1094,0.59375 1.6445,0.39844 3.2227,0.99219 4.7344,1.7812 v 6.5938 c -1.5312,-1.0391 -3.0391,-1.8008 -4.5156,-2.2812 -1.4805,-0.48828 -3.0391,-0.73438 -4.6719,-0.73438 -2.9375,0 -5.2461,0.94531 -6.9219,2.8281 -1.6797,1.875 -2.5156,4.4648 -2.5156,7.7656 0,3.293 0.83594,5.8828 2.5156,7.7656 1.6758,1.875 3.9844,2.8125 6.9219,2.8125 1.6328,0 3.1914,-0.23828 4.6719,-0.71875 1.4766,-0.48828 2.9844,-1.2539 4.5156,-2.2969 z"
         id="path958" />
    </symbol>
    <symbol
       id="h"
       overflow="visible">
      <path
         d="m 21.453,-17.406 c -0.67969,-0.3125 -1.3516,-0.53906 -2.0156,-0.6875 -0.65625,-0.15625 -1.3203,-0.23438 -1.9844,-0.23438 -1.9688,0 -3.4844,0.63281 -4.5469,1.8906 -1.0547,1.2617 -1.5781,3.0703 -1.5781,5.4219 V 6.2e-4 H 3.6718 v -23.922 h 7.6562 v 3.9219 c 0.97656,-1.5625 2.1016,-2.7031 3.375,-3.4219 1.2812,-0.71875 2.8125,-1.0781 4.5938,-1.0781 0.25,0 0.52344,0.01172 0.82812,0.03125 0.30078,0.02344 0.73438,0.07031 1.2969,0.14062 z"
         id="path961" />
    </symbol>
    <symbol
       id="c"
       overflow="visible">
      <path
         d="m 27.562,-12.031 v 2.1875 H 9.671 c 0.1875,1.793 0.83203,3.1367 1.9375,4.0312 1.1133,0.89844 2.6719,1.3438 4.6719,1.3438 1.6016,0 3.25,-0.23438 4.9375,-0.70312 1.6875,-0.47656 3.4219,-1.2031 5.2031,-2.1719 v 5.8906 c -1.8047,0.6875 -3.6094,1.2031 -5.4219,1.5469 -1.8125,0.35156 -3.6211,0.53125 -5.4219,0.53125 -4.3359,0 -7.7031,-1.0977 -10.109,-3.2969 -2.3984,-2.207 -3.5938,-5.2969 -3.5938,-9.2656 0,-3.9062 1.1758,-6.9727 3.5312,-9.2031 2.3633,-2.2383 5.6094,-3.3594 9.7344,-3.3594 3.7578,0 6.7695,1.1367 9.0312,3.4062 2.2578,2.2617 3.3906,5.2812 3.3906,9.0625 z m -7.8594,-2.5312 c 0,-1.457 -0.42969,-2.6289 -1.2812,-3.5156 -0.84375,-0.89453 -1.9492,-1.3438 -3.3125,-1.3438 -1.4922,0 -2.6992,0.41797 -3.625,1.25 -0.91797,0.83594 -1.4922,2.0391 -1.7188,3.6094 z"
         id="path964" />
    </symbol>
    <symbol
       id="a"
       overflow="visible">
      <path
         d="m 14.391,-10.766 c -1.5938,0 -2.793,0.27344 -3.5938,0.8125 -0.80469,0.54297 -1.2031,1.3398 -1.2031,2.3906 0,0.96875 0.32031,1.7305 0.96875,2.2812 0.64453,0.54297 1.5469,0.8125 2.7031,0.8125 1.4375,0 2.6445,-0.51562 3.625,-1.5469 0.98828,-1.0312 1.4844,-2.3203 1.4844,-3.875 v -0.875 z m 11.688,-2.8906 V -6e-4 h -7.7031 v -3.5469 c -1.0312,1.4492 -2.1875,2.5078 -3.4688,3.1719 -1.2813,0.6641 -2.8398,1 -4.6719,1 -2.4805,0 -4.4961,-0.72266 -6.0469,-2.1719 -1.543,-1.4453 -2.3125,-3.3203 -2.3125,-5.625 0,-2.8125 0.96094,-4.8672 2.8906,-6.1719 1.9375,-1.3125 4.9688,-1.9688 9.0938,-1.9688 h 4.5156 v -0.60938 c 0,-1.207 -0.48047,-2.0938 -1.4375,-2.6562 -0.94922,-0.5625 -2.4375,-0.84375 -4.4688,-0.84375 -1.6367,0 -3.1562,0.16797 -4.5625,0.5 -1.4062,0.32422 -2.7188,0.8125 -3.9375,1.4688 v -5.8281 c 1.6445,-0.40625 3.2891,-0.70703 4.9375,-0.90625 1.6562,-0.20703 3.3047,-0.3125 4.9531,-0.3125 4.3203,0 7.4375,0.85547 9.3438,2.5625 1.9141,1.6992 2.875,4.4609 2.875,8.2812 z"
         id="path967" />
    </symbol>
    <symbol
       id="b"
       overflow="visible">
      <path
         d="m 12.031,-30.719 v 6.7969 h 7.875 v 5.4688 h -7.875 v 10.141 c 0,1.1172 0.21875,1.8711 0.65625,2.2656 0.4375,0.38672 1.3125,0.57812 2.625,0.57812 h 3.9375 v 5.4688 h -6.5625 c -3.0234,0 -5.1641,-0.62891 -6.4219,-1.8906 -1.2617,-1.2578 -1.8906,-3.3984 -1.8906,-6.4219 v -10.141 h -3.7969 v -5.4688 h 3.7969 v -6.7969 z"
         id="path970" />
    </symbol>
    <symbol
       id="g"
       overflow="visible">
      <path
         d="m 19.953,-20.422 v -12.812 h 7.6875 V 0 H 19.953 v -3.4531 c -1.0547,1.4062 -2.2148,2.4375 -3.4844,3.0938 -1.2734,0.65625 -2.7422,0.98438 -4.4062,0.98438 -2.9492,0 -5.3711,-1.1719 -7.2656,-3.5156 -1.8867,-2.3438 -2.8281,-5.3594 -2.8281,-9.0469 0,-3.6875 0.94141,-6.7031 2.8281,-9.0469 1.8945,-2.3438 4.3164,-3.5156 7.2656,-3.5156 1.6562,0 3.1172,0.33594 4.3906,1 1.2812,0.65625 2.4453,1.6836 3.5,3.0781 z m -5.0469,15.484 c 1.6445,0 2.8945,-0.59766 3.75,-1.7969 0.86328,-1.1953 1.2969,-2.9297 1.2969,-5.2031 0,-2.2812 -0.43359,-4.0195 -1.2969,-5.2188 -0.85547,-1.1953 -2.1055,-1.7969 -3.75,-1.7969 -1.625,0 -2.8711,0.60156 -3.7344,1.7969 -0.85547,1.1992 -1.2812,2.9375 -1.2812,5.2188 0,2.2734 0.42578,4.0078 1.2812,5.2031 0.86328,1.1992 2.1094,1.7969 3.7344,1.7969 z"
         id="path973" />
    </symbol>
    <symbol
       id="f"
       overflow="visible">
      <path
         d="m 16.406,-4.9375 c 1.6328,0 2.8828,-0.59766 3.75,-1.7969 0.86328,-1.1953 1.2969,-2.9297 1.2969,-5.2031 0,-2.2812 -0.43359,-4.0195 -1.2969,-5.2188 -0.86719,-1.1953 -2.1172,-1.7969 -3.75,-1.7969 -1.6367,0 -2.8906,0.60547 -3.7656,1.8125 -0.875,1.1992 -1.3125,2.9336 -1.3125,5.2031 0,2.2617 0.4375,3.9961 1.3125,5.2031 0.875,1.1992 2.1289,1.7969 3.7656,1.7969 z m -5.0781,-15.484 c 1.0508,-1.3945 2.2188,-2.4219 3.5,-3.0781 1.2812,-0.66406 2.7539,-1 4.4219,-1 2.9453,0 5.3672,1.1719 7.2656,3.5156 1.8945,2.3438 2.8438,5.3594 2.8438,9.0469 0,3.6875 -0.94922,6.7031 -2.8438,9.0469 -1.8984,2.3438 -4.3203,3.5156 -7.2656,3.5156 -1.668,0 -3.1406,-0.33594 -4.4219,-1 -1.2813,-0.66406 -2.4492,-1.6914 -3.5,-3.0781 V 4e-4 H 3.6717 v -33.234 h 7.6562 z"
         id="path976" />
    </symbol>
    <symbol
       id="e"
       overflow="visible">
      <path
         d="m 0.53125,-23.922 h 7.6562 l 6.4219,16.234 5.4688,-16.234 h 7.6562 l -10.062,26.188 c -1.0117,2.6641 -2.1953,4.5234 -3.5469,5.5781 -1.3438,1.0625 -3.1211,1.5938 -5.3281,1.5938 H 4.37545 V 4.4223 h 2.3906 c 1.3008,0 2.2422,-0.21094 2.8281,-0.625 0.59375,-0.40625 1.0547,-1.1484 1.3906,-2.2188 l 0.20312,-0.65625 z"
         id="path979" />
    </symbol>
    <symbol
       id="d"
       overflow="visible">
      <path
         d="m 22.359,-23.172 v 5.7969 c -1.6367,-0.67578 -3.2148,-1.1875 -4.7344,-1.5312 -1.5234,-0.34375 -2.9609,-0.51562 -4.3125,-0.51562 -1.4609,0 -2.543,0.18359 -3.25,0.54688 -0.69922,0.36719 -1.0469,0.92188 -1.0469,1.6719 0,0.61719 0.26562,1.0898 0.79688,1.4219 0.53125,0.32422 1.4883,0.5625 2.875,0.71875 l 1.3438,0.1875 c 3.9141,0.5 6.5508,1.3242 7.9062,2.4688 1.3516,1.1367 2.0312,2.9219 2.0312,5.3594 0,2.5547 -0.94531,4.4688 -2.8281,5.75 -1.875,1.2812 -4.6797,1.9219 -8.4062,1.9219 -1.5859,0 -3.2188,-0.125 -4.9062,-0.375 -1.6874,-0.25 -3.4219,-0.625 -5.2031,-1.125 v -5.8125 c 1.5195,0.74219 3.082,1.2969 4.6875,1.6719 1.6016,0.36719 3.2344,0.54688 4.8906,0.54688 1.4883,0 2.6094,-0.20312 3.3594,-0.60938 0.75781,-0.41406 1.1406,-1.0312 1.1406,-1.8438 0,-0.6875 -0.26172,-1.1953 -0.78125,-1.5312 -0.52344,-0.33203 -1.5586,-0.59375 -3.1094,-0.78125 l -1.3438,-0.17188 c -3.4062,-0.42578 -5.793,-1.2109 -7.1562,-2.3594 -1.3672,-1.1562 -2.0469,-2.9102 -2.0469,-5.2656 0,-2.5312 0.86719,-4.4062 2.6094,-5.625 1.7383,-1.2266 4.3984,-1.8438 7.9844,-1.8438 1.4062,0 2.8828,0.10938 4.4375,0.32812 1.5508,0.21094 3.2383,0.54297 5.0625,1 z"
         id="path982" />
    </symbol>
    <symbol
       id="m"
       overflow="visible">
      <path
         d="M 27.734,-14.562 V 0 h -7.7031 v -11.109 c 0,-2.0938 -0.04687,-3.5312 -0.14062,-4.3125 -0.08594,-0.78125 -0.24219,-1.3594 -0.46875,-1.7344 -0.30469,-0.5 -0.71094,-0.88281 -1.2188,-1.1562 -0.51172,-0.28125 -1.0938,-0.42188 -1.75,-0.42188 -1.5938,0 -2.8516,0.61719 -3.7656,1.8438 -0.90625,1.2305 -1.3594,2.9375 -1.3594,5.125 v 11.766 h -7.6562 v -33.234 h 7.6562 v 12.812 c 1.1445,-1.3945 2.3633,-2.4219 3.6562,-3.0781 1.3008,-0.66406 2.7383,-1 4.3125,-1 2.7578,0 4.8516,0.85156 6.2812,2.5469 1.4375,1.6875 2.1562,4.1523 2.1562,7.3906 z"
         id="path985" />
    </symbol>
    <symbol
       id="l"
       overflow="visible">
      <path
         d="m 3.4219,-9.3125 v -14.609 h 7.6875 v 2.3906 c 0,1.293 -0.01172,2.918 -0.03125,4.875 -0.01172,1.9609 -0.01563,3.2656 -0.01563,3.9219 0,1.9297 0.04687,3.3125 0.14062,4.1562 0.10156,0.84375 0.28125,1.4609 0.53125,1.8438 0.3125,0.5 0.71875,0.88672 1.2188,1.1562 0.50781,0.27344 1.0938,0.40625 1.75,0.40625 1.5938,0 2.8438,-0.60938 3.75,-1.8281 0.91406,-1.2266 1.375,-2.9297 1.375,-5.1094 v -11.812 h 7.6406 v 23.922 h -7.6406 v -3.4531 c -1.1562,1.3867 -2.3828,2.4141 -3.6719,3.0781 -1.2812,0.66406 -2.6992,1 -4.25,1 -2.7734,0 -4.8828,-0.84766 -6.3281,-2.5469 -1.4375,-1.6953 -2.1562,-4.1602 -2.1562,-7.3906 z"
         id="path988" />
    </symbol>
    <symbol
       id="k"
       overflow="visible">
      <path
         d="m 3.6719,-23.922 h 7.6562 V 0 H 3.6719 Z m 0,-9.3125 h 7.6562 v 6.2344 H 3.6719 Z"
         id="path991" />
    </symbol>
    <symbol
       id="j"
       overflow="visible">
      <path
         d="m 1.5312,-23.922 h 7.4375 l 4.0156,16.484 4.0469,-16.484 h 6.375 l 4.0156,16.312 4.0469,-16.312 h 7.4375 L 32.5937,0 H 24.2499 L 20.203,-16.453 16.1874,0 H 7.8436 Z"
         id="path994" />
    </symbol>
    <symbol
       id="i"
       overflow="visible">
      <path
         d="m 19.422,-33.234 v 5.0156 h -4.2344 c -1.0859,0 -1.8398,0.19922 -2.2656,0.59375 -0.42969,0.38672 -0.64062,1.0625 -0.64062,2.0312 v 1.6719 h 6.5312 v 5.4688 h -6.5312 v 18.453 h -7.6406 v -18.453 h -3.8125 v -5.4688 h 3.8125 v -1.6719 c 0,-2.6016 0.72266,-4.5234 2.1719,-5.7656 1.457,-1.25 3.707,-1.875 6.75,-1.875 z"
         id="path997" />
    </symbol>
    <clipPath
       clipPathUnits="userSpaceOnUse"
       id="clipPath1884">
      <rect
         style="fill:#00ffff;stroke:none;stroke-width:0.264584;stroke-linecap:round;stroke-linejoin:round;stroke-miterlimit:4;stroke-dasharray:1.5875, 1.5875;stroke-dashoffset:0;paint-order:markers stroke fill;stop-color:#000000"
         id="rect1886"
         width="65.207558"
         height="60.683346"
         x="-4.3459349"
         y="36.34095" />
    </clipPath>
  </defs>
  <g
     inkscape:label="Calque 1"
     inkscape:groupmode="layer"
     id="layer1"
     transform="translate(2.1031024,-56.964812)">
    <text
       xml:space="preserve"
       transform="matrix(0.26458333,0,0,0.26458333,0.45883809,78.052113)"
       id="text4983"
       style="font-size:26.6667px;line-height:1.25;font-family:sans-serif;white-space:pre;shape-inside:url(#rect4985)"><tspan
         x="19.339844"
         y="47.105499"
         id="tspan47432">system :
</tspan><tspan
         x="19.339844"
         y="80.438873"
         id="tspan47434">  - planet 1
</tspan><tspan
         x="19.339844"
         y="113.77225"
         id="tspan47436">  - planet 2
</tspan><tspan
         x="19.339844"
         y="147.10562"
         id="tspan47438">  - planet 3
</tspan><tspan
         x="19.339844"
         y="180.43899"
         id="tspan47440">  - satellite
</tspan><tspan
         x="19.339844"
         y="213.77237"
         id="tspan47442">  - planet 4
</tspan><tspan
         x="19.339844"
         y="247.10574"
         id="tspan47444">  - planet 5
</tspan><tspan
         x="19.339844"
         y="280.43912"
         id="tspan47446">  - rings
</tspan><tspan
         x="19.339844"
         y="313.77249"
         id="tspan47448">  - star</tspan></text>
    <text
       xml:space="preserve"
       style="font-size:7.05556px;line-height:1.25;font-family:sans-serif;stroke-width:0.264583"
       x="57.774178"
       y="70.887726"
       id="text11025"><tspan
         sodipodi:role="line"
         id="tspan11023"
         style="stroke-width:0.264583"
         x="57.774178"
         y="70.887726">hierarchy :</tspan><tspan
         sodipodi:role="line"
         style="stroke-width:0.264583"
         x="57.774178"
         y="79.707176"
         id="tspan11027">  - sg1 :</tspan><tspan
         sodipodi:role="line"
         style="stroke-width:0.264583"
         x="57.774178"
         y="88.526627"
         id="tspan11029">    - planet 3</tspan><tspan
         sodipodi:role="line"
         style="stroke-width:0.264583"
         x="57.774178"
         y="97.346077"
         id="tspan11031">    - satellite</tspan><tspan
         sodipodi:role="line"
         style="stroke-width:0.264583"
         x="57.774178"
         y="106.16553"
         id="tspan11033">  - sg2:</tspan><tspan
         sodipodi:role="line"
         style="stroke-width:0.264583"
         x="57.774178"
         y="114.98498"
         id="tspan11035">    - planet 5</tspan><tspan
         sodipodi:role="line"
         style="stroke-width:0.264583"
         x="57.774178"
         y="123.80443"
         id="tspan11037">    - rings</tspan><tspan
         sodipodi:role="line"
         style="stroke-width:0.264583"
         x="57.774178"
         y="132.62387"
         id="tspan11039">  - sg3</tspan><tspan
         sodipodi:role="line"
         style="stroke-width:0.264583"
         x="57.774178"
         y="141.44333"
         id="tspan11041">    - planet 1</tspan><tspan
         sodipodi:role="line"
         style="stroke-width:0.264583"
         x="57.774178"
         y="150.26277"
         id="tspan11043">    - planet 2</tspan><tspan
         sodipodi:role="line"
         style="stroke-width:0.264583"
         x="57.774178"
         y="159.08223"
         id="tspan11045">    - sg1</tspan><tspan
         sodipodi:role="line"
         style="stroke-width:0.264583"
         x="57.774178"
         y="167.90167"
         id="tspan11047">    - planet 4</tspan><tspan
         sodipodi:role="line"
         style="stroke-width:0.264583"
         x="57.774178"
         y="176.72113"
         id="tspan13307">    - sg2</tspan><tspan
         sodipodi:role="line"
         style="stroke-width:0.264583"
         x="57.774178"
         y="185.54057"
         id="tspan13309">    - star</tspan></text>
    <path
       style="fill:none;stroke:#000000;stroke-width:0.264583px;stroke-linecap:butt;stroke-linejoin:miter;stroke-opacity:1"
       d="m 109.63737,54.385561 c 0,49.035979 0,98.071689 0,147.107139"
       id="path14304"
       inkscape:path-effect="#path-effect14306"
       inkscape:original-d="m 109.63737,54.385561 c 2.7e-4,49.035979 2.7e-4,98.071689 0,147.107139" />
    <g
       id="g14981"
       transform="translate(0.19537648,7.9653527)">
      <g
         id="g14723"
         transform="translate(0.07293583,3.2608362)">
        <path
           style="fill:none;stroke:#000000;stroke-width:0.264583px;stroke-linecap:butt;stroke-linejoin:miter;stroke-opacity:1"
           d="m 153.84582,63.549974 c -0.0123,11.231484 -0.0246,22.462704 -6.10181,28.048029 -6.07722,5.585326 -18.21914,5.525025 -24.26489,6.815037 -6.04574,1.290012 -5.99482,3.92997 -5.94391,6.5697"
           id="path14458"
           inkscape:path-effect="#path-effect14460"
           inkscape:original-d="m 153.84582,63.549974 c -0.012,11.231484 -0.0243,22.462704 -0.0369,33.693657 -12.14213,-0.06004 -24.28405,-0.12034 -36.42647,-0.180906 0.0512,2.640322 0.10211,5.280275 0.15276,7.920015" />
        <path
           style="fill:none;stroke:#000000;stroke-width:0.269543px;stroke-linecap:butt;stroke-linejoin:miter;stroke-opacity:1"
           d="m 153.96076,63.05823 c 0.0124,11.560007 0.0249,23.119741 6.15283,28.868436 6.12797,5.748695 18.37127,5.686634 24.46749,7.014387 6.09623,1.327757 6.04488,4.044897 5.99354,6.761857"
           id="path14458-7"
           inkscape:path-effect="#path-effect14494"
           inkscape:original-d="m 153.96076,63.05823 c 0.0121,11.560007 0.0245,23.119741 0.0373,34.679193 12.2435,-0.06179 24.4868,-0.123859 36.7306,-0.186186 -0.0517,2.717563 -0.1029,5.434713 -0.15404,8.151673" />
      </g>
      <path
         style="fill:none;stroke:#000000;stroke-width:0.264583px;stroke-linecap:butt;stroke-linejoin:miter;stroke-opacity:1"
         d="m 153.8358,108.49174 c 0.0668,-13.621615 0.13371,-27.243489 0.1745,-28.598834 0.0408,-1.355346 0.0555,9.555402 -3.27112,15.301047 -3.32665,5.745647 -9.99467,6.326227 -13.36276,7.769517 -3.3681,1.44328 -3.4359,3.74888 -3.5037,6.05427"
         id="path14758"
         inkscape:path-effect="#path-effect14760"
         inkscape:original-d="m 153.8358,108.49174 c 0.0671,-13.621614 0.13397,-27.243488 0.20056,-40.865629 0.015,10.911449 0.0298,21.822197 0.0442,32.732899 -6.66801,0.58087 -13.33602,1.16146 -20.00442,1.74179 -0.0675,2.30596 -0.13535,4.61156 -0.20342,6.91694" />
      <path
         id="path14758-7"
         style="fill:none;stroke:#000000;stroke-width:0.258993px;stroke-linecap:butt;stroke-linejoin:miter;stroke-opacity:1"
         inkscape:path-effect="#path-effect14874"
         inkscape:original-d="m 154.05313,108.66412 c -0.0643,-13.623269 -0.12835,-27.24678 -0.19215,-40.870564 -0.0144,10.912765 -0.0285,21.82483 -0.0423,32.736854 6.38846,0.58094 12.77691,1.1616 19.16574,1.742 0.0647,2.30623 0.12968,4.61211 0.19489,6.91777"
         d="m 154.05313,108.66412 c -0.0641,-13.62327 -0.1281,-27.246781 -0.16717,-28.60229 -0.0391,-1.355509 -0.0532,9.556556 3.13401,15.302897 3.1872,5.746343 9.57565,6.326993 12.80253,7.770453 3.22689,1.44345 3.29185,3.74933 3.35681,6.055" />
    </g>
    <text
       xml:space="preserve"
       transform="matrix(0.26458333,0,0,0.26458333,-2.1031024,56.964812)"
       id="text22213"
       style="font-size:26.6667px;line-height:1.25;font-family:sans-serif;white-space:pre;shape-inside:url(#rect22215)" />
    <text
       xml:space="preserve"
       style="font-size:7.05556px;line-height:1.25;font-family:sans-serif;stroke-width:0.264583"
       x="148.17018"
       y="71.917534"
       id="text25741"><tspan
         sodipodi:role="line"
         id="tspan25739"
         style="stroke-width:0.264583"
         x="148.17018"
         y="71.917534">sg3</tspan></text>
    <text
       xml:space="preserve"
       style="font-size:3.52778px;line-height:1.25;font-family:sans-serif;stroke-width:0.264583"
       x="111.41055"
       y="120.15447"
       id="text28277"><tspan
         sodipodi:role="line"
         id="tspan28275"
         style="font-size:3.52778px;stroke-width:0.264583"
         x="111.41055"
         y="120.15447">planet 1</tspan></text>
    <text
       xml:space="preserve"
       style="font-size:3.52778px;line-height:1.25;font-family:sans-serif;stroke-width:0.264583"
       x="127.56139"
       y="120.27003"
       id="text28277-6"><tspan
         sodipodi:role="line"
         id="tspan28275-7"
         style="font-size:3.52778px;stroke-width:0.264583"
         x="127.56139"
         y="120.27003">planet 2</tspan></text>
    <text
       xml:space="preserve"
       style="font-size:3.52778px;line-height:1.25;font-family:sans-serif;stroke-width:0.264583"
       x="137.66072"
       y="138.06499"
       id="text28277-6-8"><tspan
         sodipodi:role="line"
         id="tspan28275-7-1"
         style="font-size:3.52778px;stroke-width:0.264583"
         x="137.66072"
         y="138.06499">planet 3</tspan></text>
    <text
       xml:space="preserve"
       style="font-size:3.52778px;line-height:1.25;font-family:sans-serif;stroke-width:0.264583"
       x="166.91449"
       y="119.93266"
       id="text28277-6-3"><tspan
         sodipodi:role="line"
         id="tspan28275-7-6"
         style="font-size:3.52778px;stroke-width:0.264583"
         x="166.91449"
         y="119.93266">planet 4</tspan></text>
    <text
       xml:space="preserve"
       style="font-size:3.52778px;line-height:1.25;font-family:sans-serif;stroke-width:0.264583"
       x="151.4644"
       y="119.91504"
       id="text28277-6-5"><tspan
         sodipodi:role="line"
         id="tspan28275-7-63"
         style="font-size:3.52778px;stroke-width:0.264583"
         x="151.4644"
         y="119.91504">sg1</tspan></text>
    <text
       xml:space="preserve"
       style="font-size:3.52778px;line-height:1.25;font-family:sans-serif;stroke-width:0.264583"
       x="187.82362"
       y="120.49075"
       id="text28277-6-5-9"><tspan
         sodipodi:role="line"
         id="tspan28275-7-63-4"
         style="font-size:3.52778px;stroke-width:0.264583"
         x="187.82362"
         y="120.49075">sg2</tspan></text>
    <path
       style="display:inline;fill:none;fill-rule:evenodd;stroke:#000000;stroke-width:0.264583px;stroke-linecap:butt;stroke-linejoin:miter;stroke-opacity:1"
       d="m 154.28585,122.10603 -9.2063,12.82389"
       id="path40109"
       inkscape:connector-type="polyline"
       inkscape:connector-curvature="0" />
    <path
       style="fill:none;fill-rule:evenodd;stroke:#000000;stroke-width:0.264583px;stroke-linecap:butt;stroke-linejoin:miter;stroke-opacity:1"
       d="m 163.28718,134.69969 -9.10522,-12.45724"
       id="path40111"
       inkscape:connector-type="polyline"
       inkscape:connector-curvature="0" />
    <text
       xml:space="preserve"
       style="font-size:3.52778px;line-height:1.25;font-family:sans-serif;stroke-width:0.264583"
       x="156.73769"
       y="138.13145"
       id="text28277-6-2"><tspan
         sodipodi:role="line"
         id="tspan28275-7-9"
         style="font-size:3.52778px;stroke-width:0.264583"
         x="156.73769"
         y="138.13145">satellite</tspan></text>
    <text
       xml:space="preserve"
       style="font-size:3.52778px;line-height:1.25;font-family:sans-serif;stroke-width:0.264583"
       x="174.80272"
       y="138.68387"
       id="text28277-6-8-6"><tspan
         sodipodi:role="line"
         id="tspan28275-7-1-1"
         style="font-size:3.52778px;stroke-width:0.264583"
         x="174.80272"
         y="138.68387">planet 5</tspan></text>
    <path
       style="display:inline;fill:none;fill-rule:evenodd;stroke:#000000;stroke-width:0.264583px;stroke-linecap:butt;stroke-linejoin:miter;stroke-opacity:1"
       d="m 191.42785,122.72491 -9.2063,12.82389"
       id="path40109-1"
       inkscape:connector-type="polyline"
       inkscape:connector-curvature="0" />
    <path
       style="fill:none;fill-rule:evenodd;stroke:#000000;stroke-width:0.264583px;stroke-linecap:butt;stroke-linejoin:miter;stroke-opacity:1"
       d="m 200.42918,135.31857 -9.10522,-12.45724"
       id="path40111-5"
       inkscape:connector-type="polyline"
       inkscape:connector-curvature="0" />
    <text
       xml:space="preserve"
       style="font-size:3.52778px;line-height:1.25;font-family:sans-serif;white-space:pre;inline-size:0;stroke-width:0.264583"
       x="193.87968"
       y="138.75034"
       id="text28277-6-2-9"
       transform="translate(1.5473751,-0.22481056)"><tspan
         id="tspan28275-7-9-8"
         style="font-size:3.52778px;stroke-width:0.264583"
         x="193.87968"
         y="138.75034">rings</tspan></text>
  </g>
</svg>
