<?xml version="1.0" encoding="UTF-8" standalone="no"?>
<!-- Created with Inkscape (http://www.inkscape.org/) -->

<svg
   width="301.20621mm"
   height="119.87769mm"
   viewBox="0 0 301.20621 119.87769"
   version="1.1"
   id="svg5"
   inkscape:version="1.1.1 (eb90963e84, 2021-10-02)"
   sodipodi:docname="schema_camera.svg"
   inkscape:export-filename="/home/tbedrine/Documents/exo3d/docs/svg_doc/schema_camera.png"
   inkscape:export-xdpi="96"
   inkscape:export-ydpi="96"
   xmlns:inkscape="http://www.inkscape.org/namespaces/inkscape"
   xmlns:sodipodi="http://sodipodi.sourceforge.net/DTD/sodipodi-0.dtd"
   xmlns="http://www.w3.org/2000/svg"
   xmlns:svg="http://www.w3.org/2000/svg">
  <sodipodi:namedview
     id="namedview7"
     pagecolor="#ffffff"
     bordercolor="#666666"
     borderopacity="1.0"
     inkscape:pageshadow="2"
     inkscape:pageopacity="0.0"
     inkscape:pagecheckerboard="0"
     inkscape:document-units="mm"
     showgrid="false"
     inkscape:snap-bbox="true"
     inkscape:bbox-paths="true"
     inkscape:bbox-nodes="true"
     inkscape:snap-bbox-edge-midpoints="true"
     inkscape:snap-bbox-midpoints="true"
     inkscape:snap-intersection-paths="true"
     inkscape:object-paths="true"
     inkscape:snap-midpoints="true"
     inkscape:snap-global="false"
     inkscape:zoom="0.87643458"
     inkscape:cx="522.00131"
     inkscape:cy="230.47927"
     inkscape:window-width="1920"
     inkscape:window-height="1043"
     inkscape:window-x="1920"
     inkscape:window-y="0"
     inkscape:window-maximized="1"
     inkscape:current-layer="layer1"
     lock-margins="true"
     fit-margin-top="15"
     fit-margin-left="15"
     fit-margin-right="15"
     fit-margin-bottom="15" />
  <defs
     id="defs2">
    <symbol
       id="n"
       overflow="visible">
      <path
         d="m 29.312,-1.75 c -1.5117,0.78125 -3.0898,1.3711 -4.7344,1.7656 -1.6367,0.40625 -3.3398,0.60938 -5.1094,0.60938 -5.3125,0 -9.5273,-1.4844 -12.641,-4.4531 -3.1055,-2.9688 -4.6562,-7 -4.6562,-12.094 0,-5.094 1.5508,-9.125 4.6562,-12.094 3.1133,-2.9688 7.3281,-4.4531 12.641,-4.4531 1.7695,0 3.4727,0.19922 5.1094,0.59375 1.6445,0.39844 3.2227,0.99219 4.7344,1.7812 v 6.5938 c -1.5312,-1.0391 -3.0391,-1.8008 -4.5156,-2.2812 -1.4805,-0.48828 -3.0391,-0.73438 -4.6719,-0.73438 -2.9375,0 -5.2461,0.94531 -6.9219,2.8281 -1.6797,1.875 -2.5156,4.4648 -2.5156,7.7656 0,3.293 0.83594,5.8828 2.5156,7.7656 1.6758,1.875 3.9844,2.8125 6.9219,2.8125 1.6328,0 3.1914,-0.23828 4.6719,-0.71875 1.4766,-0.48828 2.9844,-1.2539 4.5156,-2.2969 z"
         id="path958" />
    </symbol>
    <symbol
       id="h"
       overflow="visible">
      <path
         d="m 21.453,-17.406 c -0.67969,-0.3125 -1.3516,-0.53906 -2.0156,-0.6875 -0.65625,-0.15625 -1.3203,-0.23438 -1.9844,-0.23438 -1.9688,0 -3.4844,0.63281 -4.5469,1.8906 -1.0547,1.2617 -1.5781,3.0703 -1.5781,5.4219 V 6.2e-4 H 3.6718 v -23.922 h 7.6562 v 3.9219 c 0.97656,-1.5625 2.1016,-2.7031 3.375,-3.4219 1.2812,-0.71875 2.8125,-1.0781 4.5938,-1.0781 0.25,0 0.52344,0.01172 0.82812,0.03125 0.30078,0.02344 0.73438,0.07031 1.2969,0.14062 z"
         id="path961" />
    </symbol>
    <symbol
       id="c"
       overflow="visible">
      <path
         d="m 27.562,-12.031 v 2.1875 H 9.671 c 0.1875,1.793 0.83203,3.1367 1.9375,4.0312 1.1133,0.89844 2.6719,1.3438 4.6719,1.3438 1.6016,0 3.25,-0.23438 4.9375,-0.70312 1.6875,-0.47656 3.4219,-1.2031 5.2031,-2.1719 v 5.8906 c -1.8047,0.6875 -3.6094,1.2031 -5.4219,1.5469 -1.8125,0.35156 -3.6211,0.53125 -5.4219,0.53125 -4.3359,0 -7.7031,-1.0977 -10.109,-3.2969 -2.3984,-2.207 -3.5938,-5.2969 -3.5938,-9.2656 0,-3.9062 1.1758,-6.9727 3.5312,-9.2031 2.3633,-2.2383 5.6094,-3.3594 9.7344,-3.3594 3.7578,0 6.7695,1.1367 9.0312,3.4062 2.2578,2.2617 3.3906,5.2812 3.3906,9.0625 z m -7.8594,-2.5312 c 0,-1.457 -0.42969,-2.6289 -1.2812,-3.5156 -0.84375,-0.89453 -1.9492,-1.3438 -3.3125,-1.3438 -1.4922,0 -2.6992,0.41797 -3.625,1.25 -0.91797,0.83594 -1.4922,2.0391 -1.7188,3.6094 z"
         id="path964" />
    </symbol>
    <symbol
       id="a"
       overflow="visible">
      <path
         d="m 14.391,-10.766 c -1.5938,0 -2.793,0.27344 -3.5938,0.8125 -0.80469,0.54297 -1.2031,1.3398 -1.2031,2.3906 0,0.96875 0.32031,1.7305 0.96875,2.2812 0.64453,0.54297 1.5469,0.8125 2.7031,0.8125 1.4375,0 2.6445,-0.51562 3.625,-1.5469 0.98828,-1.0312 1.4844,-2.3203 1.4844,-3.875 v -0.875 z m 11.688,-2.8906 V -6e-4 h -7.7031 v -3.5469 c -1.0312,1.4492 -2.1875,2.5078 -3.4688,3.1719 -1.2813,0.6641 -2.8398,1 -4.6719,1 -2.4805,0 -4.4961,-0.72266 -6.0469,-2.1719 -1.543,-1.4453 -2.3125,-3.3203 -2.3125,-5.625 0,-2.8125 0.96094,-4.8672 2.8906,-6.1719 1.9375,-1.3125 4.9688,-1.9688 9.0938,-1.9688 h 4.5156 v -0.60938 c 0,-1.207 -0.48047,-2.0938 -1.4375,-2.6562 -0.94922,-0.5625 -2.4375,-0.84375 -4.4688,-0.84375 -1.6367,0 -3.1562,0.16797 -4.5625,0.5 -1.4062,0.32422 -2.7188,0.8125 -3.9375,1.4688 v -5.8281 c 1.6445,-0.40625 3.2891,-0.70703 4.9375,-0.90625 1.6562,-0.20703 3.3047,-0.3125 4.9531,-0.3125 4.3203,0 7.4375,0.85547 9.3438,2.5625 1.9141,1.6992 2.875,4.4609 2.875,8.2812 z"
         id="path967" />
    </symbol>
    <symbol
       id="b"
       overflow="visible">
      <path
         d="m 12.031,-30.719 v 6.7969 h 7.875 v 5.4688 h -7.875 v 10.141 c 0,1.1172 0.21875,1.8711 0.65625,2.2656 0.4375,0.38672 1.3125,0.57812 2.625,0.57812 h 3.9375 v 5.4688 h -6.5625 c -3.0234,0 -5.1641,-0.62891 -6.4219,-1.8906 -1.2617,-1.2578 -1.8906,-3.3984 -1.8906,-6.4219 v -10.141 h -3.7969 v -5.4688 h 3.7969 v -6.7969 z"
         id="path970" />
    </symbol>
    <symbol
       id="g"
       overflow="visible">
      <path
         d="m 19.953,-20.422 v -12.812 h 7.6875 V 0 H 19.953 v -3.4531 c -1.0547,1.4062 -2.2148,2.4375 -3.4844,3.0938 -1.2734,0.65625 -2.7422,0.98438 -4.4062,0.98438 -2.9492,0 -5.3711,-1.1719 -7.2656,-3.5156 -1.8867,-2.3438 -2.8281,-5.3594 -2.8281,-9.0469 0,-3.6875 0.94141,-6.7031 2.8281,-9.0469 1.8945,-2.3438 4.3164,-3.5156 7.2656,-3.5156 1.6562,0 3.1172,0.33594 4.3906,1 1.2812,0.65625 2.4453,1.6836 3.5,3.0781 z m -5.0469,15.484 c 1.6445,0 2.8945,-0.59766 3.75,-1.7969 0.86328,-1.1953 1.2969,-2.9297 1.2969,-5.2031 0,-2.2812 -0.43359,-4.0195 -1.2969,-5.2188 -0.85547,-1.1953 -2.1055,-1.7969 -3.75,-1.7969 -1.625,0 -2.8711,0.60156 -3.7344,1.7969 -0.85547,1.1992 -1.2812,2.9375 -1.2812,5.2188 0,2.2734 0.42578,4.0078 1.2812,5.2031 0.86328,1.1992 2.1094,1.7969 3.7344,1.7969 z"
         id="path973" />
    </symbol>
    <symbol
       id="f"
       overflow="visible">
      <path
         d="m 16.406,-4.9375 c 1.6328,0 2.8828,-0.59766 3.75,-1.7969 0.86328,-1.1953 1.2969,-2.9297 1.2969,-5.2031 0,-2.2812 -0.43359,-4.0195 -1.2969,-5.2188 -0.86719,-1.1953 -2.1172,-1.7969 -3.75,-1.7969 -1.6367,0 -2.8906,0.60547 -3.7656,1.8125 -0.875,1.1992 -1.3125,2.9336 -1.3125,5.2031 0,2.2617 0.4375,3.9961 1.3125,5.2031 0.875,1.1992 2.1289,1.7969 3.7656,1.7969 z m -5.0781,-15.484 c 1.0508,-1.3945 2.2188,-2.4219 3.5,-3.0781 1.2812,-0.66406 2.7539,-1 4.4219,-1 2.9453,0 5.3672,1.1719 7.2656,3.5156 1.8945,2.3438 2.8438,5.3594 2.8438,9.0469 0,3.6875 -0.94922,6.7031 -2.8438,9.0469 -1.8984,2.3438 -4.3203,3.5156 -7.2656,3.5156 -1.668,0 -3.1406,-0.33594 -4.4219,-1 -1.2813,-0.66406 -2.4492,-1.6914 -3.5,-3.0781 V 4e-4 H 3.6717 v -33.234 h 7.6562 z"
         id="path976" />
    </symbol>
    <symbol
       id="e"
       overflow="visible">
      <path
         d="m 0.53125,-23.922 h 7.6562 l 6.4219,16.234 5.4688,-16.234 h 7.6562 l -10.062,26.188 c -1.0117,2.6641 -2.1953,4.5234 -3.5469,5.5781 -1.3438,1.0625 -3.1211,1.5938 -5.3281,1.5938 H 4.37545 V 4.4223 h 2.3906 c 1.3008,0 2.2422,-0.21094 2.8281,-0.625 0.59375,-0.40625 1.0547,-1.1484 1.3906,-2.2188 l 0.20312,-0.65625 z"
         id="path979" />
    </symbol>
    <symbol
       id="d"
       overflow="visible">
      <path
         d="m 22.359,-23.172 v 5.7969 c -1.6367,-0.67578 -3.2148,-1.1875 -4.7344,-1.5312 -1.5234,-0.34375 -2.9609,-0.51562 -4.3125,-0.51562 -1.4609,0 -2.543,0.18359 -3.25,0.54688 -0.69922,0.36719 -1.0469,0.92188 -1.0469,1.6719 0,0.61719 0.26562,1.0898 0.79688,1.4219 0.53125,0.32422 1.4883,0.5625 2.875,0.71875 l 1.3438,0.1875 c 3.9141,0.5 6.5508,1.3242 7.9062,2.4688 1.3516,1.1367 2.0312,2.9219 2.0312,5.3594 0,2.5547 -0.94531,4.4688 -2.8281,5.75 -1.875,1.2812 -4.6797,1.9219 -8.4062,1.9219 -1.5859,0 -3.2188,-0.125 -4.9062,-0.375 -1.6874,-0.25 -3.4219,-0.625 -5.2031,-1.125 v -5.8125 c 1.5195,0.74219 3.082,1.2969 4.6875,1.6719 1.6016,0.36719 3.2344,0.54688 4.8906,0.54688 1.4883,0 2.6094,-0.20312 3.3594,-0.60938 0.75781,-0.41406 1.1406,-1.0312 1.1406,-1.8438 0,-0.6875 -0.26172,-1.1953 -0.78125,-1.5312 -0.52344,-0.33203 -1.5586,-0.59375 -3.1094,-0.78125 l -1.3438,-0.17188 c -3.4062,-0.42578 -5.793,-1.2109 -7.1562,-2.3594 -1.3672,-1.1562 -2.0469,-2.9102 -2.0469,-5.2656 0,-2.5312 0.86719,-4.4062 2.6094,-5.625 1.7383,-1.2266 4.3984,-1.8438 7.9844,-1.8438 1.4062,0 2.8828,0.10938 4.4375,0.32812 1.5508,0.21094 3.2383,0.54297 5.0625,1 z"
         id="path982" />
    </symbol>
    <symbol
       id="m"
       overflow="visible">
      <path
         d="M 27.734,-14.562 V 0 h -7.7031 v -11.109 c 0,-2.0938 -0.04687,-3.5312 -0.14062,-4.3125 -0.08594,-0.78125 -0.24219,-1.3594 -0.46875,-1.7344 -0.30469,-0.5 -0.71094,-0.88281 -1.2188,-1.1562 -0.51172,-0.28125 -1.0938,-0.42188 -1.75,-0.42188 -1.5938,0 -2.8516,0.61719 -3.7656,1.8438 -0.90625,1.2305 -1.3594,2.9375 -1.3594,5.125 v 11.766 h -7.6562 v -33.234 h 7.6562 v 12.812 c 1.1445,-1.3945 2.3633,-2.4219 3.6562,-3.0781 1.3008,-0.66406 2.7383,-1 4.3125,-1 2.7578,0 4.8516,0.85156 6.2812,2.5469 1.4375,1.6875 2.1562,4.1523 2.1562,7.3906 z"
         id="path985" />
    </symbol>
    <symbol
       id="l"
       overflow="visible">
      <path
         d="m 3.4219,-9.3125 v -14.609 h 7.6875 v 2.3906 c 0,1.293 -0.01172,2.918 -0.03125,4.875 -0.01172,1.9609 -0.01563,3.2656 -0.01563,3.9219 0,1.9297 0.04687,3.3125 0.14062,4.1562 0.10156,0.84375 0.28125,1.4609 0.53125,1.8438 0.3125,0.5 0.71875,0.88672 1.2188,1.1562 0.50781,0.27344 1.0938,0.40625 1.75,0.40625 1.5938,0 2.8438,-0.60938 3.75,-1.8281 0.91406,-1.2266 1.375,-2.9297 1.375,-5.1094 v -11.812 h 7.6406 v 23.922 h -7.6406 v -3.4531 c -1.1562,1.3867 -2.3828,2.4141 -3.6719,3.0781 -1.2812,0.66406 -2.6992,1 -4.25,1 -2.7734,0 -4.8828,-0.84766 -6.3281,-2.5469 -1.4375,-1.6953 -2.1562,-4.1602 -2.1562,-7.3906 z"
         id="path988" />
    </symbol>
    <symbol
       id="k"
       overflow="visible">
      <path
         d="m 3.6719,-23.922 h 7.6562 V 0 H 3.6719 Z m 0,-9.3125 h 7.6562 v 6.2344 H 3.6719 Z"
         id="path991" />
    </symbol>
    <symbol
       id="j"
       overflow="visible">
      <path
         d="m 1.5312,-23.922 h 7.4375 l 4.0156,16.484 4.0469,-16.484 h 6.375 l 4.0156,16.312 4.0469,-16.312 h 7.4375 L 32.5937,0 H 24.2499 L 20.203,-16.453 16.1874,0 H 7.8436 Z"
         id="path994" />
    </symbol>
    <symbol
       id="i"
       overflow="visible">
      <path
         d="m 19.422,-33.234 v 5.0156 h -4.2344 c -1.0859,0 -1.8398,0.19922 -2.2656,0.59375 -0.42969,0.38672 -0.64062,1.0625 -0.64062,2.0312 v 1.6719 h 6.5312 v 5.4688 h -6.5312 v 18.453 h -7.6406 v -18.453 h -3.8125 v -5.4688 h 3.8125 v -1.6719 c 0,-2.6016 0.72266,-4.5234 2.1719,-5.7656 1.457,-1.25 3.707,-1.875 6.75,-1.875 z"
         id="path997" />
    </symbol>
    <clipPath
       clipPathUnits="userSpaceOnUse"
       id="clipPath1884">
      <rect
         style="fill:#00ffff;stroke:none;stroke-width:0.264584;stroke-linecap:round;stroke-linejoin:round;stroke-miterlimit:4;stroke-dasharray:1.5875, 1.5875;stroke-dashoffset:0;paint-order:markers stroke fill;stop-color:#000000"
         id="rect1886"
         width="65.207558"
         height="60.683346"
         x="-4.3459349"
         y="36.34095" />
    </clipPath>
  </defs>
  <g
     inkscape:label="Calque 1"
     inkscape:groupmode="layer"
     id="layer1"
     transform="translate(2.1031024,-56.964812)">
    <g
       id="g3176"
       transform="matrix(0.89477471,0,0,0.89477471,9.728509,2.2860829)">
      <g
         id="g1480"
         transform="matrix(0.60874472,0,0,0.60874472,1.8330705,68.508626)">
        <ellipse
           style="fill:none;stroke:#000000;stroke-width:1.59828;stroke-linecap:round;stroke-linejoin:round;-inkscape-stroke:none;paint-order:markers stroke fill;stop-color:#000000"
           id="path1233"
           cx="86.564758"
           cy="85.039932"
           rx="61.252682"
           ry="26.409853" />
        <ellipse
           style="fill:none;stroke:#000000;stroke-width:1.59828;stroke-linecap:round;stroke-linejoin:round;-inkscape-stroke:none;paint-order:markers stroke fill;stop-color:#000000"
           id="ellipse1337"
           cx="86.564758"
           cy="85.039932"
           rx="41.580124"
           ry="17.617559" />
        <ellipse
           style="fill:none;stroke:#000000;stroke-width:1.59828;stroke-linecap:round;stroke-linejoin:round;-inkscape-stroke:none;paint-order:markers stroke fill;stop-color:#000000"
           id="ellipse1339"
           cx="86.564758"
           cy="85.039948"
           rx="82.959976"
           ry="36.111534" />
        <circle
           style="fill:#ffffff;stroke:#000000;stroke-width:1.065;stroke-linecap:round;stroke-linejoin:round;-inkscape-stroke:none;paint-order:markers stroke fill;stop-color:#000000"
           id="path1363"
           cx="155.94852"
           cy="64.849762"
           r="2.6035616" />
        <circle
           style="fill:#ffffff;stroke:#000000;stroke-width:1.065;stroke-linecap:round;stroke-linejoin:round;-inkscape-stroke:none;paint-order:markers stroke fill;stop-color:#000000"
           id="circle1467"
           cx="38.731453"
           cy="68.321541"
           r="2.6035616" />
        <circle
           style="fill:#ffffff;stroke:#000000;stroke-width:1.065;stroke-linecap:round;stroke-linejoin:round;-inkscape-stroke:none;paint-order:markers stroke fill;stop-color:#000000"
           id="circle1469"
           cx="69.353378"
           cy="120.42181"
           r="2.6035616" />
        <circle
           style="fill:#ffffff;stroke:#000000;stroke-width:1.065;stroke-linecap:round;stroke-linejoin:round;-inkscape-stroke:none;paint-order:markers stroke fill;stop-color:#000000"
           id="circle1471"
           cx="87.982788"
           cy="84.826279"
           r="5.633472" />
      </g>
      <g
         id="g3161">
        <path
           d="m 24.349586,87.161078 c -0.553152,-0.437427 -1.285843,-0.45396 -1.870575,-0.136429 -0.05352,-0.327954 -0.186875,-0.643929 -0.467154,-0.86557 -0.596512,-0.471715 -1.470409,-0.370149 -1.942122,0.226362 -0.182556,0.230853 -0.246963,0.502395 -0.261328,0.775637 -0.258832,-0.153957 -0.59527,-0.121202 -0.786452,0.120561 l -2.438243,3.083304 c -0.208167,0.263241 -0.162094,0.650814 0.100915,0.858794 l 4.123762,3.261876 c 0.263493,0.208367 0.651343,0.162745 0.859438,-0.100404 l 0.239686,-0.303097 0.469086,1.227786 0.0055,0.01084 c 0.03229,0.07152 0.08114,0.134473 0.14153,0.182227 0.07002,0.05537 0.154802,0.09096 0.245121,0.102183 0.171596,0.02101 0.343535,-0.05067 0.450527,-0.185965 l 2.250503,-2.8459 c 0.107228,-0.135602 0.136653,-0.318352 0.0772,-0.480056 -0.0581,-0.159352 -0.201148,-0.279697 -0.371882,-0.313661 l -0.0064,-0.0013 -1.301759,-0.173704 0.239131,-0.302395 c 0.208165,-0.263237 0.162942,-0.651187 -0.100406,-0.859435 l -0.386048,-0.305284 c 0.383578,-0.07766 0.750558,-0.238674 1.011204,-0.568278 0.585265,-0.740103 0.458727,-1.822545 -0.281287,-2.407741 z m -0.39771,0.502928 c 0.465346,0.36799 0.544068,1.041823 0.176078,1.50717 -0.367992,0.465346 -1.041823,0.544066 -1.507169,0.176075 -0.465347,-0.36799 -0.544067,-1.04182 -0.176078,-1.507167 0.367991,-0.465347 1.041823,-0.544069 1.507169,-0.176078 z m -2.337813,-1.00231 c 0.322098,0.254709 0.376043,0.719122 0.121602,1.040876 -0.254439,0.321757 -0.718932,0.376193 -1.040877,0.121604 -0.322097,-0.25471 -0.376507,-0.719654 -0.122146,-1.041309 0.25436,-0.321655 0.719768,-0.375532 1.041421,-0.121171 z m -2.106867,1.041088 4.076611,3.22459 -2.40086,3.036036 -4.077028,-3.224066 z m 5.300021,4.674278 -1.931119,2.442018 -0.505849,-1.322277 1.033736,-1.307222 z"
           id="path1002"
           style="fill:#ff0000;stroke-width:0.04136"
           inkscape:transform-center-x="3.4857821"
           inkscape:transform-center-y="-3.1508198" />
        <path
           style="fill:none;stroke:#ff0000;stroke-width:0.261;stroke-linecap:round;stroke-linejoin:round;stroke-miterlimit:4;stroke-dasharray:none;stroke-opacity:1"
           d="M 55.392164,120.33862 24.366894,94.02267"
           id="path1515"
           inkscape:transform-center-x="-15.528205"
           inkscape:transform-center-y="13.152891" />
        <path
           style="fill:none;stroke:#ff0000;stroke-width:0.161064;stroke-linecap:butt;stroke-linejoin:miter;stroke-miterlimit:4;stroke-dasharray:0.966381, 0.966381;stroke-dashoffset:0;stroke-opacity:1"
           d="M 38.078048,132.33405 24.367349,94.031136"
           id="path1630"
           inkscape:transform-center-x="-6.8713749"
           inkscape:transform-center-y="19.15484" />
        <path
           style="fill:none;stroke:#ff0000;stroke-width:0.161064;stroke-linecap:butt;stroke-linejoin:miter;stroke-miterlimit:4;stroke-dasharray:0.966381, 0.966381;stroke-dashoffset:0;stroke-opacity:1"
           d="M 64.388914,101.29321 24.362266,94.015566"
           id="path1632"
           inkscape:transform-center-x="-20.024267"
           inkscape:transform-center-y="3.6266347" />
      </g>
    </g>
    <g
       id="g3191"
       transform="matrix(0.89477471,0,0,0.89477471,15.159726,-4.8625781)">
      <g
         id="g1710"
         transform="matrix(1.3723938,0,0,1.3806734,105.02692,25.743645)"
         style="stroke-width:0.442232"
         clip-path="url(#clipPath1884)">
        <ellipse
           style="fill:none;stroke:#000000;stroke-width:0.706811;stroke-linecap:round;stroke-linejoin:round;-inkscape-stroke:none;paint-order:markers stroke fill;stop-color:#000000"
           id="ellipse1696"
           cx="86.564758"
           cy="85.039932"
           rx="61.252682"
           ry="26.409853" />
        <ellipse
           style="fill:none;stroke:#000000;stroke-width:0.706811;stroke-linecap:round;stroke-linejoin:round;-inkscape-stroke:none;paint-order:markers stroke fill;stop-color:#000000"
           id="ellipse1698"
           cx="86.564758"
           cy="85.039932"
           rx="41.580124"
           ry="17.617559" />
        <ellipse
           style="fill:none;stroke:#000000;stroke-width:0.706811;stroke-linecap:round;stroke-linejoin:round;-inkscape-stroke:none;paint-order:markers stroke fill;stop-color:#000000"
           id="ellipse1700"
           cx="86.564758"
           cy="85.039948"
           rx="82.959976"
           ry="36.111534" />
        <circle
           style="fill:#ffffff;stroke:#000000;stroke-width:0.470977;stroke-linecap:round;stroke-linejoin:round;-inkscape-stroke:none;paint-order:markers stroke fill;stop-color:#000000"
           id="circle1702"
           cx="155.94852"
           cy="64.849762"
           r="2.6035616" />
        <circle
           style="fill:#ffffff;stroke:#000000;stroke-width:0.470977;stroke-linecap:round;stroke-linejoin:round;-inkscape-stroke:none;paint-order:markers stroke fill;stop-color:#000000"
           id="circle1704"
           cx="38.731453"
           cy="68.321541"
           r="2.6035616" />
        <circle
           style="fill:#ffffff;stroke:#000000;stroke-width:0.470977;stroke-linecap:round;stroke-linejoin:round;-inkscape-stroke:none;paint-order:markers stroke fill;stop-color:#000000"
           id="circle1706"
           cx="69.353378"
           cy="120.42181"
           r="2.6035616" />
        <circle
           style="fill:#ffffff;stroke:#000000;stroke-width:0.470977;stroke-linecap:round;stroke-linejoin:round;-inkscape-stroke:none;paint-order:markers stroke fill;stop-color:#000000"
           id="circle1708"
           cx="87.982788"
           cy="84.826279"
           r="5.633472" />
      </g>
      <g
         id="g3155">
        <path
           d="m 127.67572,87.161078 c -0.55315,-0.437427 -1.28584,-0.45396 -1.87057,-0.136429 -0.0535,-0.327954 -0.18688,-0.643929 -0.46716,-0.86557 -0.59651,-0.471715 -1.47041,-0.370149 -1.94212,0.226362 -0.18255,0.230853 -0.24696,0.502395 -0.26133,0.775637 -0.25883,-0.153957 -0.59527,-0.121202 -0.78645,0.120561 l -2.43824,3.083304 c -0.20817,0.263241 -0.1621,0.650814 0.10091,0.858794 l 4.12377,3.261876 c 0.26349,0.208367 0.65134,0.162745 0.85943,-0.100404 l 0.23969,-0.303097 0.46909,1.227786 0.006,0.01084 c 0.0323,0.07152 0.0811,0.134473 0.14153,0.182227 0.07,0.05537 0.1548,0.09096 0.24512,0.102183 0.17159,0.02101 0.34353,-0.05067 0.45052,-0.185965 l 2.25051,-2.8459 c 0.10722,-0.135602 0.13665,-0.318352 0.0772,-0.480056 -0.0581,-0.159352 -0.20115,-0.279697 -0.37189,-0.313661 l -0.006,-0.0013 -1.30175,-0.173704 0.23913,-0.302395 c 0.20816,-0.263237 0.16294,-0.651187 -0.10041,-0.859435 l -0.38605,-0.305284 c 0.38358,-0.07766 0.75056,-0.238674 1.01121,-0.568278 0.58526,-0.740103 0.45872,-1.822545 -0.28129,-2.407741 z m -0.39771,0.502928 c 0.46535,0.36799 0.54407,1.041823 0.17608,1.50717 -0.36799,0.465346 -1.04182,0.544066 -1.50717,0.176075 -0.46535,-0.36799 -0.54407,-1.04182 -0.17608,-1.507167 0.36799,-0.465347 1.04183,-0.544069 1.50717,-0.176078 z m -2.33781,-1.00231 c 0.3221,0.254709 0.37604,0.719122 0.1216,1.040876 -0.25444,0.321757 -0.71893,0.376193 -1.04088,0.121604 -0.32209,-0.25471 -0.3765,-0.719654 -0.12214,-1.041309 0.25436,-0.321655 0.71977,-0.375532 1.04142,-0.121171 z m -2.10687,1.041088 4.07661,3.22459 -2.40086,3.036036 -4.07702,-3.224066 z m 5.30002,4.674278 -1.93112,2.442018 -0.50584,-1.322277 1.03373,-1.307222 z"
           id="path1694"
           style="fill:#ff0000;stroke-width:0.04136"
           inkscape:transform-center-x="3.4857821"
           inkscape:transform-center-y="-3.1508198" />
        <path
           style="fill:none;stroke:#ff0000;stroke-width:0.261;stroke-linecap:round;stroke-linejoin:round;stroke-miterlimit:4;stroke-dasharray:none;stroke-opacity:1"
           d="M 158.7183,120.33862 127.69303,94.02267"
           id="path1712"
           inkscape:transform-center-x="-15.528205"
           inkscape:transform-center-y="13.152891" />
        <path
           style="fill:none;stroke:#ff0000;stroke-width:0.161064;stroke-linecap:butt;stroke-linejoin:miter;stroke-miterlimit:4;stroke-dasharray:0.966381, 0.966381;stroke-dashoffset:0;stroke-opacity:1"
           d="M 141.40418,132.33405 127.69349,94.031136"
           id="path1714"
           inkscape:transform-center-x="-6.8713749"
           inkscape:transform-center-y="19.15484" />
        <path
           style="fill:none;stroke:#ff0000;stroke-width:0.161064;stroke-linecap:butt;stroke-linejoin:miter;stroke-miterlimit:4;stroke-dasharray:0.966381, 0.966381;stroke-dashoffset:0;stroke-opacity:1"
           d="M 167.71505,101.29321 127.6884,94.015566"
           id="path1716"
           inkscape:transform-center-x="-20.024267"
           inkscape:transform-center-y="3.6266347" />
      </g>
    </g>
    <g
       id="g3212"
       transform="matrix(0.89477471,0,0,0.89477471,9.7284912,5.7520528)">
      <g
         id="g1904"
         transform="matrix(0.60874472,0,0,0.60874472,202.95724,68.508626)">
        <ellipse
           style="fill:none;stroke:#000000;stroke-width:1.59828;stroke-linecap:round;stroke-linejoin:round;-inkscape-stroke:none;paint-order:markers stroke fill;stop-color:#000000"
           id="ellipse1890"
           cx="86.564758"
           cy="85.039932"
           rx="61.252682"
           ry="26.409853" />
        <ellipse
           style="fill:none;stroke:#000000;stroke-width:1.59828;stroke-linecap:round;stroke-linejoin:round;-inkscape-stroke:none;paint-order:markers stroke fill;stop-color:#000000"
           id="ellipse1892"
           cx="86.564758"
           cy="85.039932"
           rx="41.580124"
           ry="17.617559" />
        <ellipse
           style="fill:none;stroke:#000000;stroke-width:1.59828;stroke-linecap:round;stroke-linejoin:round;-inkscape-stroke:none;paint-order:markers stroke fill;stop-color:#000000"
           id="ellipse1894"
           cx="86.564758"
           cy="85.039948"
           rx="82.959976"
           ry="36.111534" />
        <circle
           style="fill:#ffffff;stroke:#000000;stroke-width:1.065;stroke-linecap:round;stroke-linejoin:round;-inkscape-stroke:none;paint-order:markers stroke fill;stop-color:#000000"
           id="circle1896"
           cx="155.94852"
           cy="64.849762"
           r="2.6035616" />
        <circle
           style="fill:#ffffff;stroke:#000000;stroke-width:1.065;stroke-linecap:round;stroke-linejoin:round;-inkscape-stroke:none;paint-order:markers stroke fill;stop-color:#000000"
           id="circle1898"
           cx="38.731453"
           cy="68.321541"
           r="2.6035616" />
        <circle
           style="fill:#ffffff;stroke:#000000;stroke-width:1.065;stroke-linecap:round;stroke-linejoin:round;-inkscape-stroke:none;paint-order:markers stroke fill;stop-color:#000000"
           id="circle1900"
           cx="69.353378"
           cy="120.42181"
           r="2.6035616" />
        <circle
           style="fill:#ffffff;stroke:#000000;stroke-width:1.065;stroke-linecap:round;stroke-linejoin:round;-inkscape-stroke:none;paint-order:markers stroke fill;stop-color:#000000"
           id="circle1902"
           cx="87.982788"
           cy="84.826279"
           r="5.633472" />
      </g>
      <g
         id="g3113">
        <g
           id="g1995"
           transform="rotate(-32.451021,229.27157,77.872919)">
          <path
             d="m 225.47375,87.161078 c -0.55315,-0.437427 -1.28584,-0.45396 -1.87057,-0.136429 -0.0535,-0.327954 -0.18688,-0.643929 -0.46716,-0.86557 -0.59651,-0.471715 -1.4704,-0.370149 -1.94212,0.226362 -0.18255,0.230853 -0.24696,0.502395 -0.26133,0.775637 -0.25883,-0.153957 -0.59527,-0.121202 -0.78645,0.120561 l -2.43824,3.083304 c -0.20817,0.263241 -0.16209,0.650814 0.10091,0.858794 l 4.12377,3.261876 c 0.26349,0.208367 0.65134,0.162745 0.85943,-0.100404 l 0.23969,-0.303097 0.46909,1.227786 0.006,0.01084 c 0.0323,0.07152 0.0811,0.134473 0.14153,0.182227 0.07,0.05537 0.1548,0.09096 0.24512,0.102183 0.17159,0.02101 0.34353,-0.05067 0.45052,-0.185965 l 2.25051,-2.8459 c 0.10723,-0.135602 0.13665,-0.318352 0.0772,-0.480056 -0.0581,-0.159352 -0.20115,-0.279697 -0.37188,-0.313661 l -0.006,-0.0013 -1.30176,-0.173704 0.23913,-0.302395 c 0.20816,-0.263237 0.16294,-0.651187 -0.10041,-0.859435 l -0.38605,-0.305284 c 0.38358,-0.07766 0.75056,-0.238674 1.01121,-0.568278 0.58526,-0.740103 0.45872,-1.822545 -0.28129,-2.407741 z m -0.39771,0.502928 c 0.46535,0.36799 0.54407,1.041823 0.17608,1.50717 -0.36799,0.465346 -1.04182,0.544066 -1.50717,0.176075 -0.46534,-0.36799 -0.54406,-1.04182 -0.17608,-1.507167 0.368,-0.465347 1.04183,-0.544069 1.50717,-0.176078 z m -2.33781,-1.00231 c 0.3221,0.254709 0.37604,0.719122 0.1216,1.040876 -0.25444,0.321757 -0.71893,0.376193 -1.04087,0.121604 -0.3221,-0.25471 -0.37651,-0.719654 -0.12215,-1.041309 0.25436,-0.321655 0.71977,-0.375532 1.04142,-0.121171 z m -2.10687,1.041088 4.07661,3.22459 -2.40086,3.036036 -4.07702,-3.224066 z m 5.30002,4.674278 -1.93111,2.442018 -0.50585,-1.322277 1.03373,-1.307222 z"
             id="path1888"
             style="fill:#ff0000;stroke-width:0.04136"
             inkscape:transform-center-x="3.4857821"
             inkscape:transform-center-y="-3.1508198" />
          <path
             style="fill:none;stroke:#ff0000;stroke-width:0.161064;stroke-linecap:butt;stroke-linejoin:miter;stroke-miterlimit:4;stroke-dasharray:0.966381, 0.966381;stroke-dashoffset:0;stroke-opacity:1"
             d="M 239.20222,132.33405 225.49152,94.031136"
             id="path1908"
             inkscape:transform-center-x="-6.8713749"
             inkscape:transform-center-y="19.15484" />
          <path
             style="fill:none;stroke:#ff0000;stroke-width:0.161064;stroke-linecap:butt;stroke-linejoin:miter;stroke-miterlimit:4;stroke-dasharray:0.966381, 0.966381;stroke-dashoffset:0;stroke-opacity:1"
             d="M 265.51308,101.29321 225.48643,94.015566"
             id="path1910"
             inkscape:transform-center-x="-20.024267"
             inkscape:transform-center-y="3.6266347" />
        </g>
        <path
           style="fill:none;stroke:#ff0000;stroke-width:0.565;stroke-linecap:round;stroke-linejoin:round;stroke-miterlimit:4;stroke-dasharray:none;stroke-opacity:1"
           d="m 229.39892,88.637146 v -5.109771 l 0.67187,0.990616 m -0.67187,-0.990616 -0.70895,0.990616"
           id="path2030"
           sodipodi:nodetypes="ccccc" />
        <path
           style="fill:none;stroke:#ff0000;stroke-width:0.565;stroke-linecap:round;stroke-linejoin:round;stroke-miterlimit:4;stroke-dasharray:none;stroke-opacity:1"
           d="m 229.39892,95.388304 v 5.109776 l 0.67187,-0.990621 m -0.67187,0.990621 -0.70895,-0.990621"
           id="path2686"
           sodipodi:nodetypes="ccccc" />
        <path
           style="fill:none;stroke:#ff0000;stroke-width:0.565;stroke-linecap:round;stroke-linejoin:round;stroke-miterlimit:4;stroke-dasharray:none;stroke-opacity:1"
           d="m 226.62911,92.692377 h -5.10978 l 0.99062,0.67187 m -0.99062,-0.67187 0.99062,-0.70895"
           id="path2688"
           sodipodi:nodetypes="ccccc" />
        <path
           style="fill:none;stroke:#ff0000;stroke-width:0.565;stroke-linecap:round;stroke-linejoin:round;stroke-miterlimit:4;stroke-dasharray:none;stroke-opacity:1"
           d="m 234.56885,92.692377 h 5.10978 l -0.99062,0.67187 m 0.99062,-0.67187 -0.99062,-0.70895"
           id="path2690"
           sodipodi:nodetypes="ccccc" />
        <path
           style="fill:none;stroke:#ff0000;stroke-width:0.565;stroke-linecap:round;stroke-linejoin:round;stroke-miterlimit:4;stroke-dasharray:none;stroke-opacity:1"
           d="m 228.69706,93.42072 -3.61316,3.61316 0.22539,-1.175558 m -0.22539,1.175558 1.20178,-0.199171"
           id="path2692"
           sodipodi:nodetypes="ccccc"
           inkscape:transform-center-x="1.8572274"
           inkscape:transform-center-y="1.8452874" />
        <path
           style="fill:none;stroke:#ff0000;stroke-width:0.565;stroke-linecap:round;stroke-linejoin:round;stroke-miterlimit:4;stroke-dasharray:none;stroke-opacity:1"
           d="m 231.52823,90.864859 2.671,-2.671002 -0.22539,1.17556 m 0.22539,-1.17556 -1.20178,0.19917"
           id="path2694"
           sodipodi:nodetypes="ccccc"
           inkscape:transform-center-x="-1.8572326"
           inkscape:transform-center-y="-1.8452876" />
      </g>
    </g>
    <text
       xml:space="preserve"
       style="font-style:normal;font-weight:normal;font-size:10.5833px;line-height:1.25;font-family:sans-serif;fill:#000000;fill-opacity:1;stroke:none;stroke-width:0.264583"
       x="38.887783"
       y="159.6411"
       id="text3986"><tspan
         sodipodi:role="line"
         id="tspan3984"
         style="stroke-width:0.264583"
         x="38.887783"
         y="159.6411">System</tspan></text>
    <text
       xml:space="preserve"
       style="font-style:normal;font-weight:normal;font-size:10.5833px;line-height:1.25;font-family:sans-serif;fill:#000000;fill-opacity:1;stroke:none;stroke-width:0.264583"
       x="131.51918"
       y="159.6411"
       id="text4070"><tspan
         sodipodi:role="line"
         id="tspan4068"
         style="stroke-width:0.264583"
         x="131.51918"
         y="159.6411">Planet</tspan></text>
    <text
       xml:space="preserve"
       style="font-style:normal;font-weight:normal;font-size:10.5833px;line-height:1.25;font-family:sans-serif;fill:#000000;fill-opacity:1;stroke:none;stroke-width:0.264583"
       x="227.01344"
       y="159.6411"
       id="text4176"><tspan
         sodipodi:role="line"
         id="tspan4174"
         style="stroke-width:0.264583"
         x="227.01344"
         y="159.6411">Free</tspan></text>
  </g>
</svg>
