<?xml version="1.0" encoding="UTF-8" standalone="no"?>
<!-- Created with Inkscape (http://www.inkscape.org/) -->

<svg
   width="512"
   height="512"
   viewBox="0 0 135.46667 135.46667"
   version="1.1"
   id="svg5"
   inkscape:version="1.1 (ce6663b3b7, 2021-05-25)"
   sodipodi:docname="ring.svg"
   xmlns:inkscape="http://www.inkscape.org/namespaces/inkscape"
   xmlns:sodipodi="http://sodipodi.sourceforge.net/DTD/sodipodi-0.dtd"
   xmlns="http://www.w3.org/2000/svg"
   xmlns:svg="http://www.w3.org/2000/svg">
  <sodipodi:namedview
     id="namedview7"
     pagecolor="#505050"
     bordercolor="#ffffff"
     borderopacity="1"
     inkscape:pageshadow="0"
     inkscape:pageopacity="0"
     inkscape:pagecheckerboard="1"
     inkscape:document-units="px"
     showgrid="false"
     inkscape:snap-bbox="true"
     inkscape:bbox-paths="true"
     inkscape:bbox-nodes="true"
     inkscape:snap-bbox-edge-midpoints="true"
     inkscape:snap-page="true"
     inkscape:zoom="1.4628906"
     inkscape:cx="108.34713"
     inkscape:cy="256"
     inkscape:window-width="1848"
     inkscape:window-height="1016"
     inkscape:window-x="72"
     inkscape:window-y="27"
     inkscape:window-maximized="1"
     inkscape:current-layer="layer1" />
  <defs
     id="defs2" />
  <g
     inkscape:label="Calque 1"
     inkscape:groupmode="layer"
     id="layer1">
    <path
       id="path142"
       style="fill:#e6e6e6;fill-rule:evenodd;stroke-width:0.999999;fill-opacity:0.81229246"
       d="M 256 0 A 256.00001 256.00001 0 0 0 0 256 A 256.00001 256.00001 0 0 0 256 512 A 256.00001 256.00001 0 0 0 512 256 A 256.00001 256.00001 0 0 0 256 0 z M 256 102.92383 A 153.07711 153.07711 0 0 1 409.07617 256 A 153.07711 153.07711 0 0 1 256 409.07617 A 153.07711 153.07711 0 0 1 102.92383 256 A 153.07711 153.07711 0 0 1 256 102.92383 z "
       transform="scale(0.26458334)" />
  </g>
</svg>
